<svg xmlns="http://www.w3.org/2000/svg" viewBox="0 0 70.43 74"><defs><style>.cls-1{fill:#fff;}</style></defs><title>Bibibliotheek</title><g id="Laag_2" data-name="Laag 2"><g id="Laag_1-2" data-name="Laag 1"><path class="cls-1" d="M28.68,18.91a3.31,3.31,0,0,1-.05.62L20,71a4,4,0,0,1-4.6,3.23l-11.83-2A4,4,0,0,1,.3,67.68L8.9,16.23A4,4,0,0,1,13.49,13l11.84,2A4,4,0,0,1,28.68,18.91Z" transform="translate(-0.25 -0.25)"/><path class="cls-1" d="M48.68,4.37V70.09a4.12,4.12,0,0,1-4,4.16h-12a4.13,4.13,0,0,1-4-4.16V4.37a4.1,4.1,0,0,1,4-4.12h12A4.09,4.09,0,0,1,48.68,4.37Z" transform="translate(-0.25 -0.25)"/><path class="cls-1" d="M70.68,12.25v58a4.06,4.06,0,0,1-4,4h-12a4.06,4.06,0,0,1-4-4v-58a4.06,4.06,0,0,1,4-4h12A4.06,4.06,0,0,1,70.68,12.25Z" transform="translate(-0.25 -0.25)"/></g></g></svg>