<?xml version="1.0" encoding="utf-8"?>
<!-- Generator: Adobe Illustrator 21.1.0, SVG Export Plug-In . SVG Version: 6.00 Build 0)  -->
<svg version="1.1" id="Laag_1" xmlns="http://www.w3.org/2000/svg" xmlns:xlink="http://www.w3.org/1999/xlink" x="0px" y="0px"
	 viewBox="0 0 74.4 61.8" style="enable-background:new 0 0 74.4 61.8;" xml:space="preserve">
<style type="text/css">
	.st0{fill:#FFFFFF;}
</style>
<title>Favorieten</title>
<g id="Laag_1-2">
	<g id="XMLID_1_">
		<g>
			<path class="st0" d="M35.9,10.9l1.2,1.9L35.9,10.9c-1.5-2.1-3.4-3.9-5.6-5.2c-1.5-0.9-3-1.5-4.6-2c1.6,0.4,3.1,1.1,4.6,1.9
				C32.5,6.9,34.5,8.7,35.9,10.9z"/>
			<path class="st0" d="M67.2,32.1c5.4-6.4,5.5-15.6,0.7-22C72.7,16.5,72.7,25.7,67.2,32.1c-0.3,0.4-0.7,0.8-1,1.2L41,57.3
				c-1.5,1.4-3.5,1.8-5.4,1.3c1.8,0.5,3.9,0.1,5.3-1.3l25.2-24C66.5,32.9,66.8,32.5,67.2,32.1L67.2,32.1z"/>
			<path class="st0" d="M65.2,7.2c0.2,0.2,0.5,0.4,0.7,0.6s0.5,0.5,0.7,0.7c0.5,0.5,0.9,1,1.3,1.5c4.8,6.5,4.8,15.6-0.7,22l0,0
				c-0.3,0.4-0.7,0.8-1.1,1.2l-25.2,24c-1.5,1.4-3.5,1.8-5.3,1.3c-0.2,0-0.4-0.1-0.5-0.2c-0.1-0.1-0.3-0.1-0.4-0.2
				c-0.2-0.1-0.3-0.2-0.5-0.3c-0.3-0.2-0.5-0.4-0.8-0.6L11.2,36.3l-3.1-2.9C7.7,33,7.3,32.5,6.9,32C1.3,25.1,1.6,14.9,8,8.3
				c4.4-4.4,10.6-6.2,16.5-5c0.4,0.1,0.8,0.2,1.2,0.3c1.6,0.4,3.1,1.1,4.6,2c2.2,1.3,4.1,3.1,5.6,5.3l1.2,1.9l1.2-1.8
				c1.4-2.1,3.2-3.9,5.3-5.2C50.4,1.6,59.1,2.2,65.2,7.2C65.1,7.2,65.2,7.2,65.2,7.2z"/>
			<path class="st0" d="M37.2,12.8l1.2-1.9c1.4-2.1,3.2-3.8,5.3-5.1c-2.1,1.3-3.9,3.1-5.3,5.2L37.2,12.8z"/>
			<path class="st0" d="M33.3,57.3l-22.1-21L33.3,57.3c0.3,0.3,0.6,0.5,0.9,0.7C33.9,57.8,33.6,57.5,33.3,57.3z"/>
			<path class="st0" d="M7.9,8.3c4.4-4.4,10.7-6.1,16.5-4.9C18.6,2.2,12.4,3.9,7.9,8.3c-6.3,6.6-6.7,16.8-1,23.7
				C1.2,25.1,1.5,14.8,7.9,8.3z"/>
			<path class="st0" d="M24.5,3.3c-5.9-1.1-12.1,0.6-16.6,5c-6.4,6.6-6.7,16.8-1,23.7c0.4,0.5,0.8,0.9,1.2,1.4l3.1,2.9l22.1,21
				c0.3,0.2,0.6,0.5,0.9,0.7c0.1,0.1,0.3,0.2,0.5,0.3c0.1,0.1,0.3,0.1,0.4,0.2c0.2,0.1,0.4,0.1,0.5,0.2c1.8,0.6,3.9,0.1,5.4-1.3
				l25.2-24c0.4-0.4,0.7-0.8,1.1-1.2c5.5-6.4,5.5-15.6,0.6-22.1c-0.4-0.5-0.8-1-1.3-1.5c-0.2-0.2-0.5-0.5-0.7-0.7
				c-0.2-0.2-0.5-0.4-0.7-0.6l0,0c-6.1-5-14.7-5.6-21.4-1.4C41.7,7.2,39.9,9,38.5,11l-1.2,1.9L36.1,11c-1.5-2.1-3.4-4-5.6-5.3
				c-1.4-0.9-3-1.5-4.6-1.9C25.3,3.5,24.9,3.4,24.5,3.3z M42.2,3.2C50-1.6,60-0.9,67.1,4.9c8.8,7.3,9.9,20.4,2.6,29.1
				c-0.4,0.5-0.9,1-1.3,1.4l-25.2,24c-3.3,3.1-8.4,3.1-11.7,0l-25.2-24c-8.1-8-8.2-21.1-0.3-29.3C12.8-0.7,23.5-2,31.9,3
				c2,1.2,3.8,2.7,5.3,4.6C38.6,5.9,40.3,4.4,42.2,3.2z"/>
		</g>
	</g>
</g>
</svg>
